<svg width="25" height="25" viewBox="0 0 25 25" fill="none" xmlns="http://www.w3.org/2000/svg">
<path fill-rule="evenodd" clip-rule="evenodd" d="M17.1122 8.39101C18.253 9.57737 24.5909 9.31371 24.9712 11.4228C25.4782 13.9273 19.1404 16.0364 17.9995 17.3546C18.2531 19.4637 20.0277 23.4182 17.9995 25C15.4644 24.2091 13.8166 22.3636 12.2955 20.3864C9.50681 21.9682 6.84489 24.8682 3.16893 25C2.91542 22.1 4.69002 19.4637 5.70407 17.2228C4.18299 14.0591 0.760543 13.0046 0 9.0501C2.28163 7.86374 5.83082 9.05008 8.61948 8.12736C9.88705 5.491 11.1547 1.53647 13.1828 0.0864714C14.0701 -0.572617 15.3377 2.72284 15.7179 3.64556C16.4785 5.35919 16.732 6.94101 17.1122 8.39101ZM5.45054 22.7591C7.73217 21.7046 10.3941 20.3864 11.6617 18.9364C14.0701 19.8591 15.7179 21.441 17.4925 22.8909C17.239 20.9137 16.3517 19.4637 15.8447 17.75C17.4925 14.9819 20.9149 13.9273 23.1966 11.6864C20.6614 11.1592 17.8728 11.0273 16.0982 9.84097C15.2109 7.60007 14.5771 4.96374 13.3095 2.98648C12.4222 5.49101 11.1546 7.73189 9.88705 9.84097C7.98569 10.6319 4.69005 10.1046 2.40842 9.9728C3.54923 13.0046 6.46466 14.0591 7.73224 17.0909C6.97169 18.8046 5.70406 21.0455 5.45054 22.7591Z" fill="#FFF301"/>
</svg>
