<svg width="26" height="28" viewBox="0 0 26 28" fill="none" xmlns="http://www.w3.org/2000/svg">
<path fill-rule="evenodd" clip-rule="evenodd" d="M0.184082 27.1758C5.63577 20.8138 20.4993 22.9336 23.7926 14.6455C26.8381 6.79993 18.9003 0.58293 11.7276 1.74972C8.21194 2.32715 4.84926 4.71862 4.53003 7.69676C4.22256 10.8144 6.35699 14.1479 9.02321 13.642C11.9726 13.1124 10.6048 10.417 10.4165 8.18429C16.8105 7.92636 13.0337 15.5525 9.9663 16.3732C1.7551 18.7518 -0.365938 8.81213 2.51364 4.07228C6.14851 -1.85552 16.718 0.0641535 20.8461 3.37006C23.1343 5.14466 26.4366 8.80132 25.9518 13.1988C25.6208 16.0374 22.3052 18.9869 20.1342 20.2942C14.5536 23.4348 5.22243 22.6756 0.184082 27.1758Z" fill="#FF0020"/>
</svg>
