<svg width="89" height="87" viewBox="0 0 89 87" fill="none" xmlns="http://www.w3.org/2000/svg">
<path fill-rule="evenodd" clip-rule="evenodd" d="M24.7549 61.9131C31.1545 64.9014 25.9947 73.2266 20.237 70.9621C16.2219 69.3505 16.5088 64.5706 17.1616 62.8279C20.9557 54.4208 35.8444 59.8375 35.5355 69.5504C35.0217 82.6774 19.5072 89.9699 10.0813 84.8811C-1.72909 78.4156 -1.33824 67.3371 5.57515 57.1983C12.7945 46.5297 24.9877 35.2001 37.137 33.7363C53.0064 31.9476 67.1383 45.4056 79.3234 27.3595C86.1248 16.8029 81.5638 1.45232 67.9969 5.98339C65.1315 10.3344 63.255 14.1966 64.5687 17.4279C66.1803 13.4128 72.3369 11.3152 76.1471 16.341C77.0429 19.6843 73.8417 22.7816 71.0993 25.0841C58.1552 26.0889 55.5826 7.29423 67.4479 1.42747C72.5448 -1.28195 81.7877 2.28817 85.5569 7.99687C94.338 21.5448 80.2163 39.8857 67.8321 42.9801C56.2837 45.8505 43.4245 36.3068 32.0591 40.6959C24.1899 43.9242 -0.980337 63.6579 7.35287 75.5342C14.1784 85.127 31.7305 80.4239 30.8376 67.8978C30.5426 65.9612 28.994 64.3605 24.7549 61.9131Z" fill="#017C22"/>
</svg>
