<svg width="50" height="76" viewBox="0 0 50 76" fill="none" xmlns="http://www.w3.org/2000/svg">
<path fill-rule="evenodd" clip-rule="evenodd" d="M32.5965 6.81514C33.9553 3.26183 50.2675 0.956373 48.4931 7.76139C46.7341 13.314 34.0672 9.46364 32.5965 6.81514ZM46.1242 6.85557C44.2236 3.51286 38.0516 6.31825 34.9809 6.46853C38.2929 7.07278 42.4569 9.69167 46.1242 6.85557Z" fill="#FFF301"/>
<path fill-rule="evenodd" clip-rule="evenodd" d="M43.7204 29.2479C39.7581 35.713 28.1407 27.9923 27.4925 24.665C31.1445 23.0813 43.6841 21.9823 43.7204 29.2479ZM41.6607 28.659C39.4585 24.3731 34.3731 25.3756 30.1179 25.0729C33.3466 27.3672 36.7486 30.8535 41.6607 28.659Z" fill="#FFF301"/>
<path fill-rule="evenodd" clip-rule="evenodd" d="M20.5184 41.8652C25.0456 40.4175 33.4276 41.2718 33.7961 46.9757C33.9694 48.1678 33.0789 49.2843 31.8188 49.8952C27.1557 52.218 21.8532 45.3889 20.5184 41.8652ZM31.2156 48.0088C31.3976 43.3764 25.8221 43.496 22.827 42.5825C25.0445 45.6159 27.3903 48.4004 31.2156 48.0088Z" fill="#FFF301"/>
<path fill-rule="evenodd" clip-rule="evenodd" d="M23.4945 59.6271C20.2791 66.4771 11.1063 58.5985 12.6767 53.1062C17.4375 53.0393 21.5566 54.2171 23.4945 59.6271ZM21.4273 59.6644C19.9039 56.2011 16.8409 55.7251 14.1628 54.5023C15.8824 57.2791 18.4542 62.0706 21.4273 59.6644Z" fill="#FFF301"/>
<path fill-rule="evenodd" clip-rule="evenodd" d="M0.874258 65.6125C3.65107 63.8928 10.569 66.6707 11.2095 70.6243C11.3828 71.8164 10.7335 73.6874 9.47342 74.2983C5.57248 75.7536 2.33729 68.8872 0.874258 65.6125ZM8.9987 72.1629C9.79157 68.7906 5.36311 67.2959 2.99423 66.39C4.78188 68.7293 6.05626 72.0643 8.9987 72.1629Z" fill="#FFF301"/>
</svg>
