<svg width="153" height="63" viewBox="0 0 153 63" fill="none" xmlns="http://www.w3.org/2000/svg">
<path fill-rule="evenodd" clip-rule="evenodd" d="M81.2118 17.1799C84.7687 23.2452 91.8139 35.1033 88.142 42.4082C80.2231 38.6009 82.8613 24.8855 81.2118 17.1799Z" fill="#FF0020"/>
<path fill-rule="evenodd" clip-rule="evenodd" d="M99.3506 13.1953C105.77 17.96 111.374 24.0903 114.12 35.0001C106.203 32.3525 104.477 19.7357 99.3506 13.1953Z" fill="#009ECD"/>
<path fill-rule="evenodd" clip-rule="evenodd" d="M138.29 6.58398C144.025 9.78085 150.583 15.091 151.687 22.9339C145.679 19.8057 142.597 12.1706 138.29 6.58398Z" fill="#FF0020"/>
<path fill-rule="evenodd" clip-rule="evenodd" d="M9.81882 34.2805C8.25844 39.6037 10.7337 51.7419 4.94296 56.3898C2.54014 46.8436 7.23796 41.3107 9.81882 34.2805Z" fill="#009ECD"/>
<path fill-rule="evenodd" clip-rule="evenodd" d="M44.9366 26.3102C43.3781 32.7931 44.8996 45.7515 39.4521 51.7631C35.821 41.9461 41.4689 33.2737 44.9366 26.3102Z" fill="#FFB901"/>
<path fill-rule="evenodd" clip-rule="evenodd" d="M64.0287 21.5053C63.6985 28.259 65.6968 40.8072 62.8432 47.9061C57.2361 39.4565 61.7206 28.4668 64.0287 21.5053Z" fill="#009ECD"/>
<path fill-rule="evenodd" clip-rule="evenodd" d="M117.897 8.52637C123.903 10.4949 134.079 17.5048 135.186 27.6669C127.201 24.7465 124.59 13.2224 117.897 8.52637Z" fill="#FFB901"/>
<path fill-rule="evenodd" clip-rule="evenodd" d="M26.6 34.1186C26.5406 39.644 25.8059 49.3998 23.496 55.2018C19.1171 47.0231 24.6314 40.1246 26.6 34.1186Z" fill="#FF0020"/>
</svg>
