<svg width="56" height="55" viewBox="0 0 56 55" fill="none" xmlns="http://www.w3.org/2000/svg">
<path fill-rule="evenodd" clip-rule="evenodd" d="M26.5448 2.04199C29.5292 6.75416 30.1574 16.0214 29.215 22.9326C27.3301 22.4614 25.4453 22.3043 23.5604 22.9326C21.9897 15.3931 24.0317 7.22537 26.5448 2.04199Z" fill="#FF0020"/>
<path fill-rule="evenodd" clip-rule="evenodd" d="M42.5662 7.06836C40.8384 13.8225 37.2258 22.4614 31.2571 24.9745C30.3146 23.875 30.6288 22.1473 30.9429 20.8907C32.8278 15.5502 39.1106 10.9952 42.5662 7.06836Z" fill="#FF0020"/>
<path fill-rule="evenodd" clip-rule="evenodd" d="M6.75403 11.9385C13.3511 14.2946 18.6916 17.9072 22.6184 22.9335C21.9901 24.3472 20.7335 25.1326 20.2623 26.7033C13.8223 23.5619 9.7384 18.3784 6.75403 11.9385Z" fill="#FF0020"/>
<path fill-rule="evenodd" clip-rule="evenodd" d="M53.4044 19.9482C49.0063 24.3463 42.0952 28.4302 32.8279 28.7443C31.4143 24.8175 38.1684 23.4038 41.6239 22.3043C46.179 20.8907 50.1058 20.5765 53.4044 19.9482Z" fill="#FF0020"/>
<path fill-rule="evenodd" clip-rule="evenodd" d="M24.3461 24.3466C28.43 23.2471 31.5714 25.7601 31.1002 29.3728C30.3149 34.8703 20.7335 33.7708 21.5189 27.8021C21.6759 25.9172 22.7754 25.6031 24.3461 24.3466Z" fill="#FFB901"/>
<path fill-rule="evenodd" clip-rule="evenodd" d="M19.7912 27.8028C19.6341 29.3736 20.2625 30.0019 20.2625 31.2584C15.7074 33.9287 8.32492 32.9862 2.82739 31.7296C7.22541 29.0594 12.7229 27.6458 19.7912 27.8028Z" fill="#FF0020"/>
<path fill-rule="evenodd" clip-rule="evenodd" d="M52.7762 37.6977C45.0796 37.5407 36.7548 35.6557 31.5714 32.0431C31.8856 31.5719 32.3568 30.9436 32.3568 30.1582C41.3099 30.6294 46.9645 34.2422 52.7762 37.6977Z" fill="#FF0020"/>
<path fill-rule="evenodd" clip-rule="evenodd" d="M23.0892 34.2433C20.5761 39.4267 15.5497 41.7827 9.89514 43.8246C11.9371 39.4266 16.021 34.8716 20.8902 32.3584C21.6756 32.8296 22.3039 33.615 23.0892 34.2433Z" fill="#FF0020"/>
<path fill-rule="evenodd" clip-rule="evenodd" d="M43.3518 51.0495C37.0689 47.9081 32.1997 41.311 28.587 34.714C28.7441 33.4574 30.3148 33.7715 30.786 32.8291C37.0689 36.913 40.8386 43.353 43.3518 51.0495Z" fill="#FF0020"/>
<path fill-rule="evenodd" clip-rule="evenodd" d="M27.3305 34.7139C27.4875 42.0963 25.7597 47.5938 23.5607 52.6201C22.6183 47.4368 22.6183 38.9548 24.346 34.7139C25.4456 34.7139 26.388 34.7139 27.3305 34.7139Z" fill="#FF0020"/>
<path fill-rule="evenodd" clip-rule="evenodd" d="M38.0115 21.833C43.0378 20.1052 49.3207 18.2204 55.7606 18.8487C52.305 24.3462 46.8075 27.8017 39.111 29.3724C44.9227 31.7285 52.148 33.9276 54.9753 38.4827C49.7919 39.7393 42.5666 37.6973 37.5403 36.5978C39.8964 40.6817 45.2368 46.8074 44.4514 52.9332C37.3832 49.9489 32.828 44.6085 29.2154 38.1685C27.9588 44.2943 26.8593 50.5772 23.5608 54.8181C20.7335 51.6767 21.2047 44.1373 21.6759 39.268C18.3774 41.31 13.9794 45.708 8.01064 45.2368C9.11015 40.5246 12.5658 38.1685 14.7648 34.5559C9.58144 35.0271 3.76973 33.9276 0 32.1998C2.98437 27.9588 9.73844 27.3305 15.8643 26.231C11.1521 22.4612 6.28293 17.435 5.34049 10.6809C12.4087 11.1521 17.5921 15.5501 21.6759 19.7911C21.2047 12.2516 22.7755 4.71217 25.9169 0C30.7861 2.35608 31.1003 10.0526 31.2574 17.435C35.1842 13.194 38.0114 7.53941 44.1372 5.3404C43.8231 11.4662 41.1529 17.435 38.0115 21.833ZM23.5608 22.9325C25.2886 22.3042 27.3305 22.4613 29.2154 22.9325C30.1578 16.0213 29.5296 6.75408 26.5452 2.04192C24.0321 7.2253 21.9901 15.393 23.5608 22.9325ZM31.1003 21.0476C30.7861 22.3042 30.472 24.032 31.4144 25.1315C37.3832 22.6184 40.9959 13.9794 42.7237 7.22528C39.111 10.995 32.8281 15.5501 31.1003 21.0476ZM20.1052 26.7023C20.5764 25.1315 21.833 24.3461 22.4613 22.9325C18.5345 17.9062 13.3512 14.2935 6.59705 11.9374C9.73849 18.3774 13.8223 23.5608 20.1052 26.7023ZM41.6241 22.4613C38.1685 23.5608 31.4145 24.9744 32.8281 28.9012C42.0954 28.5871 49.0065 24.3462 53.4045 20.1052C50.106 20.5764 46.1792 20.8906 41.6241 22.4613ZM21.5189 27.8017C20.7335 33.7704 30.472 35.027 31.1003 29.3724C31.5715 25.6027 28.4301 23.0896 24.3462 24.3462C22.7755 25.6028 21.676 25.9168 21.5189 27.8017ZM2.98441 31.7285C8.48194 32.828 15.8643 33.9275 20.4194 31.2573C20.4194 30.0007 19.634 29.3724 19.9482 27.8017C12.7229 27.6446 7.22536 29.0583 2.98441 31.7285ZM32.514 30.1578C32.3569 30.9431 32.0427 31.5714 31.7286 32.0427C36.912 35.4983 45.0797 37.5402 52.9333 37.6973C46.9646 34.2417 41.31 30.629 32.514 30.1578ZM20.8906 32.3568C16.0213 34.87 11.9375 39.5821 9.89553 43.8231C15.3931 41.7811 20.5765 39.268 23.0896 34.2417C22.3043 33.6134 21.6759 32.828 20.8906 32.3568ZM30.7861 32.828C30.3149 33.7705 28.7442 33.4563 28.5872 34.7129C32.1998 41.3099 37.069 47.907 43.3519 51.0485C40.8387 43.3519 37.069 36.9119 30.7861 32.828ZM24.3462 34.7129C22.6184 38.9539 22.6184 47.4358 23.5608 52.6192C25.7598 47.5929 27.4877 42.0953 27.3306 34.7129C26.3882 34.7129 25.4457 34.7129 24.3462 34.7129Z" fill="black"/>
</svg>
