<svg width="154" height="143" viewBox="0 0 154 143" fill="none" xmlns="http://www.w3.org/2000/svg">
<rect x="7" y="15" width="142" height="104" rx="41" fill="white"/>
<path fill-rule="evenodd" clip-rule="evenodd" d="M109.5 119.894C99.2531 130.972 93.7542 125.098 79.0762 132.022C90.4309 126.206 85.4148 129.862 94 121C78.4912 131.247 77.6915 135.068 53.5974 136.73C48.8894 137.007 45.2891 136.453 41.1349 135.622C42.5197 137.561 44.7352 139.223 46.9508 140.607C41.135 138.392 33.6575 135.622 27.2878 132.853C28.1186 135.899 29.7803 138.946 31.7189 140.884C31.9958 141.161 33.3805 141.715 32.8266 142.269C28.6725 138.946 23.6875 137.561 20.0873 134.238C16.487 130.914 13.7176 126.76 10.9481 123.16C7.6248 119.006 5.13231 115.405 3.47065 110.144C2.08593 105.159 0.701213 99.3428 0.147326 92.9731C-0.406561 87.4342 0.701214 84.1109 1.80899 79.1259C3.1937 73.0331 1.2551 63.894 2.63982 57.2474C3.74759 51.1546 6.51702 45.8927 8.45563 40.6308C9.5634 37.5844 10.6712 35.0919 12.0559 32.8763C13.4406 30.6608 15.3792 29.2761 17.5948 27.0605C21.195 23.4603 23.9645 19.0292 27.5647 15.152C31.165 11.2748 34.7653 7.6745 38.6425 4.62812C35.5961 9.33616 30.6111 13.7672 27.5647 19.3061C37.5347 12.6595 51.3819 6.01284 66.6137 3.24341C71.8757 2.13563 77.1376 0.750915 82.1226 0.473972C98.7392 -0.633802 116.74 -0.0799232 130.034 5.182C133.634 6.56672 136.403 8.78227 140.004 9.05921C141.942 9.33616 143.881 8.50532 145.266 9.61309C143.881 10.7209 141.665 10.9978 139.45 11.2748C143.881 17.0906 149.143 21.7986 149.697 31.4916C149.697 33.1533 149.42 34.8149 149.697 36.7536C149.697 37.8613 150.528 38.6922 150.805 39.523C151.635 43.1233 151.912 47.0005 152.466 50.8777C153.297 56.9704 154.405 63.894 153.851 70.8176C153.297 79.6798 149.42 88.542 145.82 96.2964C138.896 110.974 128.926 123.16 115.356 130.637C123.664 123.991 119.51 129.566 124.772 120.15C122.833 121.535 125.603 118.489 124.218 120.15C124.218 117.935 120 123.197 120 120.15C113.63 129.566 116.762 126.493 110.925 124.822C115.633 120.944 106.731 126.817 109.5 119.894ZM112.863 9.05921C110.925 8.50533 108.432 8.22837 106.217 8.22837C100.678 8.50532 93.4772 9.6131 87.9384 10.4439C85.4459 10.9978 82.6765 11.2748 80.7379 12.3825C90.4309 12.1056 99.847 9.33616 109.817 10.4439C116.464 11.2748 122.279 15.152 127.541 16.5367C124.772 13.2134 118.679 10.4439 112.863 9.05921ZM97.3545 25.6758C99.2931 23.1833 97.9083 18.4753 96.2467 17.0906C95.9697 20.4139 96.5236 23.1833 97.3545 25.6758ZM108.432 25.3989C110.648 24.568 112.032 19.5831 109.817 17.6445C108.709 19.3061 107.601 22.6294 108.432 25.3989ZM139.727 23.7372C137.788 21.7986 135.019 19.0292 131.695 19.3061C134.465 20.6908 136.403 22.6294 139.727 23.7372ZM85.7228 25.9528C86.5537 23.7372 86.2767 20.4139 84.0612 19.86C84.0612 22.3525 84.0612 25.1219 85.7228 25.9528ZM61.3518 30.3838C61.0749 27.0605 62.4596 23.1833 60.244 21.7986C59.6902 24.568 59.1363 29.2761 61.3518 30.3838ZM46.9508 30.6608C46.9508 27.0605 45.566 24.845 43.3505 23.4603C43.3505 27.0605 44.7352 28.9991 46.9508 30.6608ZM73.8143 33.1533C74.9221 30.9377 74.9221 26.5066 73.5373 24.568C72.7065 27.0605 73.5373 30.3838 73.8143 33.1533ZM119.787 31.2147C122.556 30.1069 126.157 27.6144 125.326 24.568C123.11 26.2297 120.895 28.1683 119.787 31.2147ZM33.3805 32.5994C34.2114 28.9991 31.4419 26.7836 28.6725 25.6758C29.2264 28.9991 31.7189 30.3839 33.3805 32.5994ZM136.957 35.3688C137.234 36.1997 136.68 37.5844 138.065 37.8613C138.065 34.2611 136.403 32.3225 134.188 30.6608C134.742 32.3225 136.403 33.4302 136.957 35.3688ZM81.5687 100.727C85.4459 93.8039 94.3081 88.265 103.17 85.2187C112.032 81.8953 121.172 77.7412 127.541 72.4793C129.48 70.8176 131.972 68.0482 132.803 65.8326C136.127 56.6935 129.203 46.4466 124.772 41.7385C119.233 35.9227 108.986 32.0455 99.0161 32.8763C87.1076 33.9841 79.907 40.9077 72.1526 45.8927C64.6751 40.3538 55.813 35.0919 43.3505 36.1997C38.9194 36.4766 33.6575 38.4152 30.6111 41.7385C28.3956 43.9541 25.3492 47.5544 24.5183 50.0468C22.3028 56.4165 23.9645 65.8326 25.6261 72.2023C24.5183 73.0331 21.472 72.2023 21.7489 74.4179C23.4106 76.0795 25.0722 72.4792 25.9031 72.7562C33.1036 94.3578 60.7979 95.4655 79.907 104.882C81.0148 103.774 80.7379 102.112 81.5687 100.727ZM127.264 37.3074C129.203 36.4766 131.419 35.3688 131.695 32.8763C129.203 33.1533 128.095 35.0919 127.264 37.3074ZM17.8717 38.9691C17.5948 40.3538 20.9181 42.2924 22.8567 41.7385C22.8567 39.523 18.4256 36.7536 17.8717 38.9691ZM133.357 45.3388C135.296 46.1696 136.957 44.7849 138.342 43.9541C139.727 43.1232 141.942 42.0155 141.665 40.9077C138.342 42.2924 134.742 42.8463 133.357 45.3388ZM136.68 55.8627C138.896 56.9704 143.327 56.6935 144.989 55.3088C142.496 54.7549 138.619 54.201 136.68 55.8627ZM10.3942 56.4165C11.779 57.8012 15.1023 56.9704 16.7639 56.1396C15.3792 55.3088 11.502 54.201 10.3942 56.4165ZM137.788 62.7862C138.065 64.7248 141.942 64.1709 142.773 63.3401C141.388 63.0632 138.896 60.8476 137.788 62.7862ZM138.619 74.9717C138.342 72.7562 135.85 72.7562 133.08 72.7562C133.634 74.6948 136.68 75.2487 138.619 74.9717ZM133.08 85.2187C131.695 82.4492 128.372 79.6798 124.218 79.1259C125.603 82.7262 128.649 84.6648 133.08 85.2187ZM22.8567 120.114C20.6411 115.959 17.0409 113.19 14.8253 108.759C11.502 102.112 10.1173 112.359 10.3942 103.22C7.07091 119.283 12.6098 114.575 22.8567 120.114ZM25.0722 89.6497C28.1186 89.3728 30.0572 86.8803 30.888 85.7725C29.2264 87.4342 25.9031 87.4342 25.0722 89.6497ZM117.571 94.3578C116.74 91.0345 113.694 89.9267 110.925 88.542C112.863 91.0345 114.802 93.25 117.571 94.3578ZM31.165 98.235C34.4883 97.6811 38.6425 94.9117 38.0886 92.4192C35.0422 93.8039 33.6575 96.5733 31.165 98.235ZM103.447 101.835C102.062 99.3428 99.2931 96.8503 96.8006 96.5733C99.0161 98.5119 100.401 101.281 103.447 101.835ZM41.6888 104.328C45.2891 104.605 48.8894 100.174 48.0585 96.8503C45.566 99.0658 44.1813 102.389 41.6888 104.328ZM17.5 110.144C16.9461 106.266 17.8717 107.651 16.7639 104.328C17.0409 108.482 21.3772 122.329 17.5 110.144ZM91.2617 109.867C91.8156 106.82 89.6001 104.605 87.6614 103.22C88.2153 105.989 89.0462 108.482 91.2617 109.867ZM53.8744 110.42C55.536 108.759 57.7516 106.82 57.1977 103.774C56.0899 105.712 53.8744 108.205 53.8744 110.42ZM67.7215 114.298C68.8293 112.913 70.7679 109.313 68.8293 107.374C68.5523 109.59 67.4446 112.359 67.7215 114.298ZM78.2454 112.359C79.3531 111.251 79.3531 107.374 77.1376 107.374C76.8606 109.313 77.4145 111.251 78.2454 112.359ZM36.4269 124.268C31.165 120.944 27.2878 115.959 22.3028 112.359C25.6261 117.898 29.5033 122.329 36.4269 124.268ZM84.5 121C84.5 120.723 84.7769 121 84.5 121C75.6378 124.323 74.3682 122.329 64.6751 124.822C64.3982 125.652 63.8443 126.206 63.5674 127.037C74.3682 124.822 76.1917 126.262 84.5 121Z" fill="black"/>
<path fill-rule="evenodd" clip-rule="evenodd" d="M79.3533 104.604C60.2442 95.188 32.5499 94.0802 25.3494 72.4786C24.5185 72.2017 22.8569 75.8019 21.1952 74.1403C20.9183 71.9247 23.9646 72.7555 25.0724 71.9247C23.1338 65.832 21.7491 56.4159 23.9646 49.7692C24.7955 46.9998 28.1188 43.3995 30.0574 41.4609C33.3807 38.4146 38.3657 36.476 42.7968 35.9221C54.9823 34.8143 64.1214 40.0762 71.5989 45.6151C79.3533 40.6301 86.8308 33.7065 98.4624 32.5988C108.432 31.7679 118.679 35.6451 124.218 41.4609C128.649 45.892 135.85 56.139 132.249 65.555C131.419 68.0475 128.926 70.54 126.988 72.2017C120.618 77.7405 111.756 81.8947 102.617 84.9411C93.7544 87.9874 85.1691 93.5263 81.015 100.45C80.738 102.112 81.015 103.773 79.3533 104.604ZM98.7393 35.3682C105.386 34.8143 110.925 36.476 115.91 38.6915C117.018 38.6915 115.91 38.4146 115.91 38.1376C107.878 33.4296 91.5388 34.2604 85.9999 39.7993C89.3233 38.6915 93.7544 35.9221 98.7393 35.3682ZM33.3807 42.5687C34.2115 41.7379 35.8732 41.461 36.981 40.3532C35.5962 40.6301 33.6576 41.7379 33.3807 42.5687ZM124.218 71.3708C125.603 70.817 127.265 69.4322 127.541 68.3245C126.434 69.4322 124.772 69.7092 124.218 71.3708ZM30.0574 75.248C29.7804 74.6942 28.1188 72.2017 28.9496 74.1403C30.8882 79.1253 35.3193 84.1102 39.7504 85.7719C35.0424 82.1716 32.2729 78.5714 30.0574 75.248ZM59.1364 93.8032C58.0287 93.5263 55.5362 92.6955 57.7517 93.5263C60.7981 94.6341 64.6753 96.0188 68.5525 97.1266C71.8758 98.5113 72.1528 98.5113 69.6603 97.4035C68.2756 96.8496 65.5061 95.4649 63.8445 95.4649C62.4598 94.911 60.5212 94.0802 59.1364 93.8032Z" fill="#FF0020"/>
</svg>
