<svg width="44" height="45" viewBox="0 0 44 45" fill="none" xmlns="http://www.w3.org/2000/svg">
<path fill-rule="evenodd" clip-rule="evenodd" d="M24.3521 2.18631C23.1731 6.02256 22.1676 9.96654 21.6828 14.2337C19.6629 15.7448 18.7472 13.7339 17.4665 12.6985C15.0456 10.5948 12.1042 8.16796 10.5272 5.86678C14.4413 4.20905 19.7438 3.41313 24.3521 2.18631Z" fill="#01A7F1"/>
<path fill-rule="evenodd" clip-rule="evenodd" d="M26.106 2.07244C30.2804 4.06245 33.5181 7.75512 37.1539 10.6129C32.5875 11.3849 27.8384 12.6446 23.3707 13.8385C23.0655 13.1682 23.7119 12.1269 23.8286 11.3578C24.6755 8.63775 25.4985 5.18154 26.106 2.07244Z" fill="#01A7F1"/>
<path fill-rule="evenodd" clip-rule="evenodd" d="M8.69003 6.89029C11.3742 10.1191 14.597 12.4802 17.4966 15.3619C12.7806 16.7623 8.23802 18.2704 3.00129 19.3476C4.71002 15.239 7.04713 11.2801 8.69003 6.89029Z" fill="#01A7F1"/>
<path fill-rule="evenodd" clip-rule="evenodd" d="M39.0628 11.7989C35.4718 19.9082 32.7157 28.4156 29.0918 36.3843C29.3073 29.0649 30.7049 22.3589 29.8462 14.2525C33.2874 13.7438 35.9776 11.9275 39.0628 11.7989Z" fill="#01A7F1"/>
<path fill-rule="evenodd" clip-rule="evenodd" d="M28.1915 14.7874C28.7271 16.4422 28.4517 18.4352 28.4248 20.2217C28.0955 25.7875 27.3443 31.4521 27.3622 37.2335C21.9011 32.281 18.2296 24.8328 13.382 18.6983C18.4122 17.3728 23.4754 16.1878 28.1915 14.7874Z" fill="#01A7F1"/>
<path fill-rule="evenodd" clip-rule="evenodd" d="M11.9008 19.3415C16.8711 26.6341 21.1621 34.8274 27.4251 40.0372C19.2439 34.2378 10.5989 28.992 3.49507 21.4571C6.62215 20.8736 9.22855 19.9669 11.9008 19.3415Z" fill="#01A7F1"/>
</svg>
