<svg width="33" height="14" viewBox="0 0 33 14" fill="none" xmlns="http://www.w3.org/2000/svg">
<path d="M0.977758 1H31.7674C32.3071 1 32.7451 0.776 32.7451 0.5C32.7451 0.224 32.3071 0 31.7674 0H0.977758C0.438034 0 0 0.224 0 0.5C0 0.776 0.438034 1 0.977758 1Z" fill="black"/>
<path d="M8.35005 7.04297H31.7674C32.3071 7.04297 32.7451 6.81897 32.7451 6.54297C32.7451 6.26697 32.3071 6.04297 31.7674 6.04297H8.35005C7.81033 6.04297 7.3723 6.26697 7.3723 6.54297C7.3723 6.81897 7.81033 7.04297 8.35005 7.04297Z" fill="black"/>
<path d="M16.1604 13.084H31.7674C32.3071 13.084 32.7451 12.86 32.7451 12.584C32.7451 12.308 32.3071 12.084 31.7674 12.084H16.1604C15.6207 12.084 15.1826 12.308 15.1826 12.584C15.1826 12.86 15.6187 13.084 16.1604 13.084Z" fill="black"/>
</svg>
